<?xml version="1.0" standalone="no"?>
<!DOCTYPE svg PUBLIC "-//W3C//DTD SVG 20010904//EN"
 "http://www.w3.org/TR/2001/REC-SVG-20010904/DTD/svg10.dtd">
<svg version="1.0" xmlns="http://www.w3.org/2000/svg"
 width="260.000000pt" height="260.000000pt" viewBox="0 0 260.000000 260.000000"
 preserveAspectRatio="xMidYMid meet">
<metadata>
Created by potrace 1.11, written by Peter Selinger 2001-2013
</metadata>
<g transform="translate(0.000000,260.000000) scale(0.100000,-0.100000)"
fill="#000000" stroke="none">
<path d="M1567 2585 c-87 -30 -179 -119 -225 -217 -15 -32 -30 -58 -33 -58 -3
0 -15 17 -26 38 -31 54 -90 116 -150 156 -255 169 -585 -9 -638 -344 -11 -63
-8 -211 4 -241 8 -23 5 -29 -26 -55 -71 -59 -130 -171 -150 -284 -28 -156 25
-369 118 -475 68 -77 199 -139 289 -137 42 1 58 -10 74 -48 56 -140 147 -298
224 -385 19 -22 77 -83 128 -136 52 -52 94 -100 94 -105 0 -11 -115 -89 -154
-104 -31 -11 -44 -36 -27 -53 9 -9 24 -6 63 15 28 15 49 25 47 23 -2 -3 -35
-36 -72 -74 -66 -67 -76 -91 -39 -91 9 0 59 40 110 89 50 49 93 86 93 82 1 -3
1 -9 0 -13 0 -4 -3 -24 -6 -45 -2 -21 -9 -52 -14 -69 -9 -33 1 -54 26 -54 13
0 29 50 39 120 3 23 7 49 9 58 2 9 4 24 4 31 1 23 99 -89 127 -146 27 -54 44
-69 62 -51 18 18 -30 117 -85 176 -19 20 -17 20 40 5 74 -19 121 -14 125 15 3
19 -1 22 -30 23 -38 1 -46 2 -107 19 -24 6 -55 18 -67 27 l-23 15 39 46 c22
26 51 61 65 77 75 88 225 336 225 372 0 7 4 13 8 13 5 0 9 6 10 13 0 6 11 42
23 79 25 71 18 67 107 69 59 2 212 47 232 68 3 4 18 13 34 21 15 8 46 35 68
60 87 98 114 196 105 373 -12 226 -67 341 -210 433 -29 19 -37 30 -32 42 78
184 55 379 -60 509 -44 51 -117 97 -177 114 -65 17 -197 20 -241 4z m-657
-1614 c0 -15 106 -116 143 -135 35 -19 38 -25 51 -106 10 -60 16 -82 82 -280
7 -21 -118 113 -169 180 -50 65 -180 321 -169 331 6 6 31 14 55 18 4 0 7 -3 7
-8z m800 -13 c0 -42 -102 -264 -168 -363 -25 -38 -49 -72 -52 -75 -3 -3 -18
-24 -34 -47 -31 -47 -41 -54 -31 -24 18 59 36 178 38 258 1 39 5 74 7 76 3 2
25 17 50 32 24 16 50 34 57 41 7 7 23 21 36 31 12 10 33 33 45 51 23 32 52 43
52 20z m-480 -193 c14 -1 30 -3 37 -3 9 -2 12 -35 13 -114 1 -62 2 -148 4
-190 1 -43 -1 -78 -5 -78 -21 0 -113 274 -126 373 l-5 37 29 -11 c15 -6 39
-12 53 -14z m180 -7 c6 -7 -5 -176 -14 -216 -13 -61 -46 -152 -55 -152 -3 0
-7 83 -9 184 -3 171 -2 185 15 188 28 6 57 4 63 -4z"/>
</g>
</svg>
